<?xml version="1.0" encoding="UTF-8"?>
<!DOCTYPE svg PUBLIC "-//W3C//DTD SVG 1.1//EN" "http://www.w3.org/Graphics/SVG/1.1/DTD/svg11.dtd">
<!-- Creator: CorelDRAW -->
<svg xmlns="http://www.w3.org/2000/svg" xml:space="preserve" width="8.26772in" height="11.6929in" version="1.1" style="shape-rendering:geometricPrecision; text-rendering:geometricPrecision; image-rendering:optimizeQuality; fill-rule:evenodd; clip-rule:evenodd"
viewBox="0 0 8267.72 11692.91"
 xmlns:xlink="http://www.w3.org/1999/xlink"
 xmlns:xodm="http://www.corel.com/coreldraw/odm/2003">
 <defs>
  <style type="text/css">
   <![CDATA[
    .fil1 {fill:#CC8C5E}
    .fil0 {fill:#FFCA06}
   ]]>
  </style>
 </defs>
 <g id="Layer_x0020_1">
  <metadata id="CorelCorpID_0Corel-Layer"/>
  <g id="_2376127668480">
   <path class="fil0" d="M1337.22 6537.54l1760.31 3.28c-6.11,-109.7 -42.93,-148.91 -34.01,-273.48 12.2,-7.42 371.7,-104.72 406.88,-66.88 13.98,26.1 32.73,133.84 43.44,178.89 13.65,57.43 30.52,120.77 59.85,158.86 81.26,6.28 167.09,2.92 248.98,2.84 39.16,-0.04 79,-0.76 118.06,0.52 193.74,6.33 135.56,84.06 135.07,-935.22 -482.92,-175.36 -946.77,-348.64 -948.91,-963.74 -1.71,-495.09 259.96,-826.91 733.42,-944.59 194.22,-48.27 220.82,22.32 220.67,-129.83l6.58 -74.62c0.85,-3.16 3,-7.64 3.78,-10.11 12.55,-39.92 180.41,-21.75 226.67,-17.61 34.73,343.92 -69.43,108.02 361.32,280.85 298.89,119.92 558.77,473.08 545,763.41 -88.26,20.78 -323.77,58.55 -419.2,55.57 -36.36,-272.34 -217.64,-533.56 -478.04,-546.46l-5.24 1210.16c83.76,38.77 251.36,69.43 355.25,105.57 103.29,35.93 224.82,101.19 305.42,166.04 629.17,506.34 327.95,1577.1 -409.73,1739.67 -20.3,153.6 -74.24,248.38 -150.02,334.74 -17.29,19.7 -38.16,39.69 -57.76,59.87 -67.9,69.91 -99.54,93.89 -244.81,134.09 -187.1,51.78 -734.39,17.62 -972.87,24.94 34.63,59.4 409.81,165.95 506.7,187.4 598.88,132.54 1231.45,33.92 1749.22,-264.34 391.5,-225.52 639.24,-496.91 910.69,-858.8 47.7,-63.59 102.55,-144.55 155.06,-198.94 170.33,-176.42 302.53,-105.73 576.43,-129.62 664.74,-1934.94 -780.54,-4000.3 -2855.83,-3994.91 -1125.37,2.92 -1912.85,566.62 -2400.65,1187.58 -270.41,344.22 -443.43,732.91 -561.52,1231.43 -115.03,485.63 -45.62,1176.13 109.79,1583.45z"/>
   <path class="fil1" d="M7227.93 6740.49c-134.37,-8.86 -308.25,-8.15 -444.17,-4.98 -166.34,3.88 -199.89,90.94 -272.2,189.91 -97.37,133.27 -291.5,377.87 -408.54,495.5 -699.02,702.44 -1690.91,1006.53 -2693.23,699.73 -229.02,-70.1 -440.81,-166.78 -620.78,-282.71 -103.44,-66.63 -233.94,-43.3 -407.8,-43.3 -117.85,0 -346.26,38.26 -351.23,-99.79 -5.11,-142.03 217.25,-103.56 338.13,-103.44l1362.84 0.2c145.5,0 288.85,16.8 405.94,-40.04 361.57,-175.5 304.13,-714.23 -90.94,-800.63 -139.15,-30.43 -1532.79,-12.46 -1795.78,-12.46 -601.85,0 -1225.09,-15.56 -1824.22,0.97 71.19,336.77 363.57,862.09 531.05,1096.36 712.71,996.98 1856.2,1690.14 3232.6,1684.54 1351.31,-5.51 2545.3,-683.08 3230,-1687.76 114.63,-168.21 205.29,-318.39 302.61,-510.09 46.93,-92.42 227.76,-496.49 223.99,-591.24 -94.47,-6.72 -202.93,-12.13 -297.43,-10.02 -125.43,2.79 -154.93,22 -216.09,89.69 -83.82,92.78 -173.27,253.57 -244.79,371.02 -163.54,268.52 -311.63,499.11 -509.33,709.39 -386.93,411.54 -833.62,723.06 -1508.05,942.57 -50.83,16.54 -191.18,61.53 -241.55,48.28 -71.65,-18.85 -110.93,-130.35 -19.65,-178.53 43.08,-22.74 170.65,-49.54 232.14,-68.57 83.37,-25.81 151.67,-49.99 232.33,-82.32 716.11,-287.01 1246.06,-779.11 1621.59,-1432.3l232.57 -379.98z"/>
   <path class="fil0" d="M4504.09 6866.26c106.42,6.39 240.42,-155.53 288.75,-231.3 82.65,-129.56 100.84,-251.74 93.87,-446.76 -5.85,-163.91 -81.44,-288.88 -177.9,-361.56 -67.94,-51.19 -268.03,-153.36 -384.06,-146.88 -4.02,94.08 -25.34,946.01 17.07,999.13 14.6,18.3 64.57,61.18 86,83.8 30.43,32.13 47.45,67.13 76.27,103.56z"/>
   <path class="fil0" d="M4077.79 5159.53l4.06 -1055.61c0.49,-68.22 11.88,-94.19 -53.98,-85.1 -71.8,9.92 -174.43,58.28 -226.62,91.27 -295.93,187.1 -332.47,625.19 -126.63,850.98 57.87,63.48 284.32,214.64 403.17,198.46z"/>
   <path class="fil0" d="M4385.86 2344.2l466.82 52.83 45.31 -230.38c-64.66,-34.5 -415.83,-79.22 -505.41,-60.46l-6.73 238z"/>
   <path class="fil0" d="M961.84 5202.86l80.29 -453 -219.39 -58.08c-30.62,43.03 -153.04,477.72 -74.64,504.96 25.57,8.88 182.11,10.01 213.74,6.12z"/>
   <path class="fil0" d="M5729.12 2729.19c82.61,44.76 123.13,66.93 196.19,111.61 63.48,38.83 150.74,111.98 205.54,124.52 30.7,-38.79 109.5,-137.88 128.06,-183.72 -28.95,-48 -336.31,-259.11 -418.18,-261.63 -30.73,29.86 -102.4,163.69 -111.6,209.2z"/>
   <path class="fil0" d="M1843.93 3331.01c12.94,-7.1 323.54,-290.34 340.08,-313.52 -23.77,-51.54 -102.38,-148.93 -143.52,-180.57 -50.36,14.65 -212.54,168.72 -270.88,223.8 -45.92,43.35 -114.34,80.27 -64.35,145.99 18.42,24.21 115.3,109.99 138.67,124.3z"/>
   <path class="fil0" d="M1215.85 3776.59l191.21 112.78 275.63 -373.93c-28.03,-43.03 -133.89,-128.33 -179.48,-154.15 -61.16,42.77 -280.99,330.4 -287.37,415.29z"/>
   <path class="fil0" d="M892.32 4454.82l226.61 72.09 173.04 -434.26 -205.55 -107.5c-47.61,58.75 -194.89,385.91 -194.09,469.67z"/>
   <path class="fil0" d="M6796.93 3633.39c9.65,33.03 180.72,275.83 233.76,382.13 65.28,-6.11 175.08,-70.03 212.5,-106.94 -8.33,-81.24 -203.82,-363.13 -262.39,-415.93 -42.67,11.46 -158.64,106.59 -183.87,140.74z"/>
   <path class="fil0" d="M3648.85 2122.93c-11.33,54.72 19.02,185.19 30.79,239.85l466.77 -32.33c27.14,-290.39 -14.74,-246.62 -140.49,-240.67 -117.95,5.57 -232.79,23.76 -357.07,33.15z"/>
   <path class="fil0" d="M7413.23 6069.37c52.57,21.13 162.66,34.15 233,26.55 12.49,-159.15 51.32,-321.23 26.54,-492.79 -44.38,-3.19 -140.7,-8.94 -182.12,-4.72 -81.16,8.27 -49,60.31 -56.37,143.94 -6.21,70.46 -45.56,277.54 -21.06,327.02z"/>
   <path class="fil0" d="M5091.43 2466.98c151.84,35.27 375.12,138.1 433.56,143.07 25.82,-56.28 69.11,-146.43 81.67,-208.46 -56.55,-55.83 -389.41,-172.35 -460.46,-169.16 -29.66,48.09 -61.13,164.36 -54.77,234.56z"/>
   <path class="fil0" d="M2921 2336.07l75.94 209.68c41.73,1.19 402.56,-110.23 445.36,-130.43 1.06,-80.16 -17.18,-169.2 -52.07,-225.47 -97.07,0.61 -410.82,99 -469.23,146.22z"/>
   <path class="fil0" d="M2252.47 2676.78c12.35,50.73 85.85,156.04 128.74,196.47l395.26 -222.67c-3.1,-62.21 -65.65,-179.39 -95.54,-218.68 -125.34,59.12 -328.09,159.25 -428.46,244.88z"/>
   <path class="fil0" d="M6314.23 3122.32l325.85 317.3c58.8,-17.81 140.13,-109.02 179.82,-147.88 -32.43,-61.63 -288.44,-314.57 -350.18,-343.66 -44.33,16.59 -145.09,136.3 -155.5,174.24z"/>
   <path class="fil0" d="M697.7 5520.4l8.65 413.75c106.98,10.59 160.64,-8.99 246.46,-21.71l-14.25 -465.36c-238.33,-33.24 -240.75,-9.9 -240.87,73.32z"/>
   <path class="fil0" d="M7159.18 4230.44l153.65 445.76c39.37,-0.47 187.33,-44 209.09,-69.81 37.5,-58.74 -123.71,-411.85 -148.78,-461.35 -56.93,1.37 -173.89,62.5 -213.96,85.4z"/>
   <path class="fil0" d="M7370.72 4901.3l62.54 459.68c58.67,7.65 179.57,14.28 226.35,-11.41 1.9,-2.82 3.83,-11.04 4.28,-9.26l-57.43 -485.29 -235.74 46.27z"/>
   <path class="fil0" d="M755.8 6186.13c-3.96,97.03 43.1,242.7 61.15,348.33l252.29 7.18c3.91,-68.57 -23.4,-131.56 -37.11,-196.52l-53.09 -187.62 -223.25 28.64z"/>
   <path class="fil0" d="M7303.06 6528.59l265.94 -1.04c16.78,-56.08 29.94,-113.95 35.68,-174.81 -42.39,-13.55 -134.69,-41.78 -175.93,-47.41 -80.8,-11.05 -61.8,47.09 -88.61,126.67 -7.39,21.91 -21.65,57.17 -37.08,96.59z"/>
  </g>
 </g>
</svg>
